# xmcd
#
# Track frame offsets: 
#        150
#        21456
#        40162
#        53927
#        66516
#        78222
#        93228
#        106634
#        124940
#        141546
#        153552
#        164458
#        180464
#        192570
#        210076
#        226482
#
# Disc length: 3359 seconds
#
# Revision: 0
# Processed by: cddbd v1.5.2PL0 Copyright (c) Steve Scherf et al.
# Submitted via: ExactAudioCopy v1.1
#
DISCID=dc0d1d10
DTITLE=Little Ole Opry - 1980
DYEAR=2015
DGENRE=Bluegrass
TTITLE0=Duellin' Banjos
TTITLE1=Evangeline
TTITLE2=Down In The Coal Mine
TTITLE3=Snoworop
TTITLE4=Flint Hill Special
TTITLE5=The Good Things
TTITLE6=Goin' Down The River
TTITLE7=Jessie James
TTITLE8=Wino Ano Rain
TTITLE9=Foggy Mountain Breakdown
TTITLE10=Black Velvet Band
TTITLE11=Old Joe Clark
TTITLE12=Whiskey In The Jar
TTITLE13=Dead Skunk
TTITLE14=Nobody Knows
TTITLE15=Junior Jig
EXTD=
EXTT0=
EXTT1=
EXTT2=
EXTT3=
EXTT4=
EXTT5=
EXTT6=
EXTT7=
EXTT8=
EXTT9=
EXTT10=
EXTT11=
EXTT12=
EXTT13=
EXTT14=
EXTT15=
PLAYORDER=
